<mxfile host="app.diagrams.net" modified="2021-12-11T12:19:04.746Z" agent="5.0 (Macintosh; Intel Mac OS X 10_15_7) AppleWebKit/605.1.15 (KHTML, like Gecko) Version/15.1 Safari/605.1.15" etag="vmMwvUF2ZxGaHDhbY8KZ" version="15.9.4" type="github">
  <diagram id="7LJ79rK0bJ0zzooGEgz3" name="第 1 页">
    <mxGraphModel dx="1081" dy="579" grid="1" gridSize="10" guides="1" tooltips="1" connect="1" arrows="1" fold="1" page="1" pageScale="1" pageWidth="827" pageHeight="1169" math="0" shadow="0">
      <root>
        <mxCell id="0" />
        <mxCell id="1" parent="0" />
        <mxCell id="rRlus0crqmKQEWSWF_5R-1" value="40字节数据" style="rounded=0;whiteSpace=wrap;html=1;" parent="1" vertex="1">
          <mxGeometry x="220" y="340" width="170" height="110" as="geometry" />
        </mxCell>
        <mxCell id="rRlus0crqmKQEWSWF_5R-2" value="" style="shape=curlyBracket;whiteSpace=wrap;html=1;rounded=1;" parent="1" vertex="1">
          <mxGeometry x="200" y="320" width="20" height="130" as="geometry" />
        </mxCell>
        <mxCell id="rRlus0crqmKQEWSWF_5R-3" value="getbuf栈帧" style="text;html=1;align=center;verticalAlign=middle;resizable=0;points=[];autosize=1;strokeColor=none;fillColor=none;" parent="1" vertex="1">
          <mxGeometry x="130" y="375" width="70" height="20" as="geometry" />
        </mxCell>
        <mxCell id="rRlus0crqmKQEWSWF_5R-4" value="" style="rounded=0;whiteSpace=wrap;html=1;" parent="1" vertex="1">
          <mxGeometry x="220" y="180" width="170" height="160" as="geometry" />
        </mxCell>
        <mxCell id="rRlus0crqmKQEWSWF_5R-5" value="" style="shape=curlyBracket;whiteSpace=wrap;html=1;rounded=1;" parent="1" vertex="1">
          <mxGeometry x="200" y="180" width="20" height="140" as="geometry" />
        </mxCell>
        <mxCell id="rRlus0crqmKQEWSWF_5R-6" value="test栈帧" style="text;html=1;align=center;verticalAlign=middle;resizable=0;points=[];autosize=1;strokeColor=none;fillColor=none;" parent="1" vertex="1">
          <mxGeometry x="135" y="240" width="60" height="20" as="geometry" />
        </mxCell>
        <mxCell id="rRlus0crqmKQEWSWF_5R-7" value="0000000000402780" style="rounded=0;whiteSpace=wrap;html=1;" parent="1" vertex="1">
          <mxGeometry x="220" y="320" width="170" height="20" as="geometry" />
        </mxCell>
        <mxCell id="rRlus0crqmKQEWSWF_5R-8" value="" style="shape=curlyBracket;whiteSpace=wrap;html=1;rounded=1;rotation=-90;" parent="1" vertex="1">
          <mxGeometry x="295" y="375" width="20" height="170" as="geometry" />
        </mxCell>
        <mxCell id="rRlus0crqmKQEWSWF_5R-9" value="栈段" style="text;html=1;align=center;verticalAlign=middle;resizable=0;points=[];autosize=1;strokeColor=none;fillColor=none;" parent="1" vertex="1">
          <mxGeometry x="285" y="470" width="40" height="20" as="geometry" />
        </mxCell>
        <mxCell id="rRlus0crqmKQEWSWF_5R-10" value="" style="rounded=0;whiteSpace=wrap;html=1;" parent="1" vertex="1">
          <mxGeometry x="480" y="180" width="170" height="270" as="geometry" />
        </mxCell>
        <mxCell id="rRlus0crqmKQEWSWF_5R-11" value="" style="shape=curlyBracket;whiteSpace=wrap;html=1;rounded=1;rotation=-90;" parent="1" vertex="1">
          <mxGeometry x="555" y="375" width="20" height="170" as="geometry" />
        </mxCell>
        <mxCell id="rRlus0crqmKQEWSWF_5R-12" value="text段" style="text;html=1;align=center;verticalAlign=middle;resizable=0;points=[];autosize=1;strokeColor=none;fillColor=none;" parent="1" vertex="1">
          <mxGeometry x="540" y="470" width="50" height="20" as="geometry" />
        </mxCell>
        <mxCell id="rRlus0crqmKQEWSWF_5R-13" value="pop &amp;nbsp;rdi" style="rounded=0;whiteSpace=wrap;html=1;" parent="1" vertex="1">
          <mxGeometry x="480" y="390" width="170" height="20" as="geometry" />
        </mxCell>
        <mxCell id="rRlus0crqmKQEWSWF_5R-14" value="&lt;span style=&quot;text-align: center&quot;&gt;0000000000402780&lt;/span&gt;" style="text;whiteSpace=wrap;html=1;" parent="1" vertex="1">
          <mxGeometry x="660" y="376.5" width="130" height="25" as="geometry" />
        </mxCell>
        <mxCell id="rRlus0crqmKQEWSWF_5R-15" value="00000000004017ef" style="rounded=0;whiteSpace=wrap;html=1;" parent="1" vertex="1">
          <mxGeometry x="220" y="280" width="170" height="20" as="geometry" />
        </mxCell>
        <mxCell id="rRlus0crqmKQEWSWF_5R-16" value="&lt;span style=&quot;text-align: center&quot;&gt;00000000004017ef&lt;/span&gt;" style="text;whiteSpace=wrap;html=1;" parent="1" vertex="1">
          <mxGeometry x="660" y="300" width="130" height="30" as="geometry" />
        </mxCell>
        <mxCell id="rRlus0crqmKQEWSWF_5R-17" value="touch2函数" style="rounded=0;whiteSpace=wrap;html=1;" parent="1" vertex="1">
          <mxGeometry x="480" y="312.5" width="170" height="55" as="geometry" />
        </mxCell>
        <mxCell id="rRlus0crqmKQEWSWF_5R-18" value="" style="endArrow=classic;html=1;rounded=0;exitX=1;exitY=0.5;exitDx=0;exitDy=0;entryX=0;entryY=0;entryDx=0;entryDy=0;" parent="1" source="rRlus0crqmKQEWSWF_5R-7" target="rRlus0crqmKQEWSWF_5R-13" edge="1">
          <mxGeometry width="50" height="50" relative="1" as="geometry">
            <mxPoint x="420" y="337.5" as="sourcePoint" />
            <mxPoint x="480" y="405" as="targetPoint" />
          </mxGeometry>
        </mxCell>
        <mxCell id="rRlus0crqmKQEWSWF_5R-19" value="" style="endArrow=classic;html=1;rounded=0;exitX=1;exitY=0.5;exitDx=0;exitDy=0;" parent="1" source="rRlus0crqmKQEWSWF_5R-15" edge="1">
          <mxGeometry width="50" height="50" relative="1" as="geometry">
            <mxPoint x="390" y="237.5" as="sourcePoint" />
            <mxPoint x="480" y="312.5" as="targetPoint" />
          </mxGeometry>
        </mxCell>
        <mxCell id="rRlus0crqmKQEWSWF_5R-20" value="返回地址" style="text;html=1;align=center;verticalAlign=middle;resizable=0;points=[];autosize=1;strokeColor=none;fillColor=none;" parent="1" vertex="1">
          <mxGeometry x="135" y="320" width="60" height="20" as="geometry" />
        </mxCell>
        <mxCell id="f6_XVVJa3W92ZmdoxiY2-1" value="ret" style="rounded=0;whiteSpace=wrap;html=1;" parent="1" vertex="1">
          <mxGeometry x="480" y="410" width="170" height="20" as="geometry" />
        </mxCell>
        <mxCell id="f6_XVVJa3W92ZmdoxiY2-2" value="000000007cf3f67a" style="rounded=0;whiteSpace=wrap;html=1;" parent="1" vertex="1">
          <mxGeometry x="220" y="300" width="170" height="20" as="geometry" />
        </mxCell>
        <mxCell id="f6_XVVJa3W92ZmdoxiY2-3" value="cookie" style="text;html=1;align=center;verticalAlign=middle;resizable=0;points=[];autosize=1;strokeColor=none;fillColor=none;" parent="1" vertex="1">
          <mxGeometry x="140" y="300" width="50" height="20" as="geometry" />
        </mxCell>
      </root>
    </mxGraphModel>
  </diagram>
</mxfile>
